<svg xmlns="http://www.w3.org/2000/svg" width="23.272" height="20.45" viewBox="0 0 23.272 20.45">
  <path id="Path_19" data-name="Path 19" d="M-92-112.955c.076-.423.122-.854.234-1.267a6.163,6.163,0,0,1,3.833-4.434,5.657,5.657,0,0,1,6.6,1.849c.306.382.555.809.83,1.216.041.06.077.124.123.2.226-.351.427-.7.658-1.018a6.068,6.068,0,0,1,3.186-2.4,5.886,5.886,0,0,1,6.643,2.521,7.064,7.064,0,0,1,.261,7.359,12.561,12.561,0,0,1-2.745,3.5c-1.648,1.526-3.347,3-5.032,4.483-.788.7-1.594,1.372-2.391,2.059a.728.728,0,0,1-1.137.008c-2.077-1.8-4.167-3.579-6.226-5.4a19.415,19.415,0,0,1-3.477-3.844,7.77,7.77,0,0,1-1.32-3.555A1.036,1.036,0,0,0-92-111.82ZM-80.374-100.2l2.479-2.12c1.638-1.4,3.3-2.776,4.81-4.322a12.646,12.646,0,0,0,2.174-2.808,5.786,5.786,0,0,0,.029-5.868,4.54,4.54,0,0,0-5.107-2.221,4.833,4.833,0,0,0-2.712,2.013,6.8,6.8,0,0,0-1,2.049.72.72,0,0,1-.411.51.686.686,0,0,1-.942-.508,7.038,7.038,0,0,0-1.4-2.567,4.477,4.477,0,0,0-7.321.566,5.7,5.7,0,0,0-.388,5.35A10.383,10.383,0,0,0-88.011-107a49.551,49.551,0,0,0,4.1,3.785C-82.738-102.214-81.564-101.213-80.374-100.2Z" transform="translate(92 119.056)"/>
</svg>
