<svg xmlns="http://www.w3.org/2000/svg" width="28" height="26" viewBox="0 0 28 26">
  <g id="Group_115" data-name="Group 115" transform="translate(-1807 -7)">
    <rect id="Rectangle_1523" data-name="Rectangle 1523" width="28" height="26" rx="3" transform="translate(1807 7)" fill="#383838"/>
    <g id="instagram" transform="translate(1815.315 14.004)">
      <path id="Path_4" data-name="Path 4" d="M11.845,3.491a4.359,4.359,0,0,0-.276-1.442A2.912,2.912,0,0,0,10.884,1,2.912,2.912,0,0,0,9.831.312,4.359,4.359,0,0,0,8.39.036C7.756.007,7.554,0,5.939,0S4.124.007,3.491.035A4.361,4.361,0,0,0,2.049.312,2.912,2.912,0,0,0,1,1,2.912,2.912,0,0,0,.312,2.049,4.359,4.359,0,0,0,.036,3.491C.007,4.124,0,4.327,0,5.939S.007,7.755.036,8.39A4.359,4.359,0,0,0,.312,9.833,2.911,2.911,0,0,0,1,10.884a2.91,2.91,0,0,0,1.052.685,4.359,4.359,0,0,0,1.442.276c.634.029.836.036,2.452.036s1.815-.007,2.452-.036a4.359,4.359,0,0,0,1.442-.276,3.037,3.037,0,0,0,1.737-1.737,4.359,4.359,0,0,0,.27-1.441c.029-.634.036-.836.036-2.452s-.007-1.815-.036-2.452ZM10.775,8.34a3.287,3.287,0,0,1-.2,1.1A1.967,1.967,0,0,1,9.444,10.57a3.286,3.286,0,0,1-1.1.2c-.626.029-.814.035-2.4.035s-1.773,0-2.4-.033a3.288,3.288,0,0,1-1.1-.206,1.841,1.841,0,0,1-.683-.445,1.84,1.84,0,0,1-.446-.682,3.286,3.286,0,0,1-.2-1.1c-.028-.627-.035-.814-.035-2.4s.006-1.774.035-2.4a3.289,3.289,0,0,1,.2-1.1,1.842,1.842,0,0,1,.445-.683,1.839,1.839,0,0,1,.685-.446,3.286,3.286,0,0,1,1.1-.2c.627-.028.814-.035,2.4-.035h0c1.586,0,1.774.006,2.4.035a3.287,3.287,0,0,1,1.1.2,1.842,1.842,0,0,1,.683.445,1.839,1.839,0,0,1,.441.683,3.284,3.284,0,0,1,.206,1.1c.028.627.035.814.035,2.4s-.006,1.774-.035,2.4Zm0,0" transform="translate(0 0)" fill="#fff"/>
      <path id="Path_5" data-name="Path 5" d="M127.589,124.539a3.051,3.051,0,1,0,3.051,3.051A3.051,3.051,0,0,0,127.589,124.539Zm0,5.03a1.98,1.98,0,1,1,1.98-1.98A1.98,1.98,0,0,1,127.589,129.569Zm0,0" transform="translate(-121.649 -121.649)" fill="#fff"/>
      <path id="Path_6" data-name="Path 6" d="M363.355,89.339a.713.713,0,1,1-.713-.713A.713.713,0,0,1,363.355,89.339Zm0,0" transform="translate(-353.531 -86.569)" fill="#fff"/>
    </g>
  </g>
</svg>
