<svg xmlns="http://www.w3.org/2000/svg" width="26" height="26" viewBox="0 0 26 26">
  <g id="Group_116" data-name="Group 116" transform="translate(-1844 -7)">
    <rect id="Rectangle_1524" data-name="Rectangle 1524" width="26" height="26" rx="3" transform="translate(1844 7)" fill="#383838"/>
    <g id="linkedin" transform="translate(1852.031 13.871)">
      <rect id="Rectangle_1511" data-name="Rectangle 1511" width="2.682" height="8.244" transform="translate(0.114 4.166)" fill="#fff"/>
      <path id="Path_33" data-name="Path 33" d="M166.239,160.1c-.028-.009-.055-.019-.085-.027s-.072-.015-.109-.021a2.4,2.4,0,0,0-.481-.049h0a3.726,3.726,0,0,0-2.882,1.576V160H160v8.244h2.682v-4.5s2.027-2.822,2.882-.749v5.246h2.681v-5.563A2.674,2.674,0,0,0,166.239,160.1Z" transform="translate(-156.138 -155.834)" fill="#fff"/>
      <circle id="Ellipse_11" data-name="Ellipse 11" cx="1.5" cy="1.5" r="1.5" transform="translate(-0.031 0.129)" fill="#fff"/>
    </g>
  </g>
</svg>
