<svg xmlns="http://www.w3.org/2000/svg" width="24.505" height="24.5" viewBox="0 0 24.505 24.5">
  <path id="Path_20" data-name="Path 20" d="M386.81,66.3a3.509,3.509,0,0,1-1.374-.573,2.715,2.715,0,0,1-1.141-2.068,19.82,19.82,0,0,1,.027-2.58,5.468,5.468,0,0,1,2.022-3.827,12.987,12.987,0,0,1,4.965-2.525,7.4,7.4,0,0,0,.885-.28,1.112,1.112,0,0,1-.156-.1,7.075,7.075,0,0,1,2.7-12.3A7.068,7.068,0,1,1,398.011,55.8a9.772,9.772,0,0,1-1.781.162,16.111,16.111,0,0,0-6.189,1.249,9.748,9.748,0,0,0-2.535,1.56,3.737,3.737,0,0,0-1.32,2.861c-.01.582,0,1.164,0,1.746a.958.958,0,0,0,1.022,1.014q9.317,0,18.634,0a.954.954,0,0,0,1.016-1.02c-.005-.749.018-1.5-.05-2.245a3.5,3.5,0,0,0-1.238-2.33,9.155,9.155,0,0,0-2.357-1.485,1.014,1.014,0,0,1-.6-.609.952.952,0,0,1,1.282-1.174,11.43,11.43,0,0,1,2.728,1.658,5.69,5.69,0,0,1,2.11,3.861.8.8,0,0,0,.04.136v2.584c-.017.061-.038.12-.051.182a2.737,2.737,0,0,1-1.356,1.931,7.62,7.62,0,0,1-1.129.423Zm14.882-17.424a5.17,5.17,0,1,0-5.162,5.178A5.175,5.175,0,0,0,401.692,48.875Z" transform="translate(-384.266 -41.8)" fill="#8f6b6c"/>
</svg>
