<svg xmlns="http://www.w3.org/2000/svg" width="177.063" height="177.151" viewBox="0 0 177.063 177.151">
  <g id="Group_67" data-name="Group 67" transform="translate(-227.919 -443.716)">
    <path id="Path_77" data-name="Path 77" d="M321.607,620.867H311.228c-2.963-.372-5.944-.64-8.887-1.133-18.5-3.092-34.616-11.051-47.882-24.309-19.9-19.887-28.655-44.057-26.111-72.046a84.507,84.507,0,0,1,21.621-49.5c16.682-18.737,37.674-28.832,62.727-30.052a84.2,84.2,0,0,1,48.847,12.344c22.986,14.022,37.094,34.336,42.058,60.873.621,3.321.928,6.7,1.38,10.055v10.38c-.141,1.245-.285,2.489-.424,3.734a88.844,88.844,0,0,1-72.885,78.277C328.34,620.079,324.963,620.414,321.607,620.867Zm69-88.518c.127-40.735-33.108-74.049-74.087-74.265-40.644-.214-73.992,33.027-74.3,74.057-.3,40.649,33.285,74.315,74.175,74.351A74.332,74.332,0,0,0,390.609,532.349Z" transform="translate(0)" fill="#8f6b6c"/>
    <path id="Path_78" data-name="Path 78" d="M360.255,621.2c.6-.539,1.072-.946,1.524-1.374q21.841-20.707,43.677-41.418c3.239-3.071,7.116-3.444,10.11-.985a7.109,7.109,0,0,1,1.057,10.045,14.288,14.288,0,0,1-1.306,1.38q-24.785,23.509-49.579,47.009c-3.859,3.658-7.768,3.58-11.493-.239q-12.8-13.124-25.582-26.272c-3.327-3.427-3.423-7.806-.3-10.748a7.128,7.128,0,0,1,9.86.063c2.423,2.3,4.7,4.753,7.039,7.147C350.208,610.881,355.153,615.962,360.255,621.2Z" transform="translate(-55.639 -74.864)" fill="#8f6b6c"/>
  </g>
</svg>
