<svg xmlns="http://www.w3.org/2000/svg" width="28" height="26" viewBox="0 0 28 26">
  <g id="Group_114" data-name="Group 114" transform="translate(-1771 -7)">
    <rect id="Rectangle_1522" data-name="Rectangle 1522" width="28" height="26" rx="3" transform="translate(1771 7)" fill="#383838"/>
    <g id="twitter" transform="translate(1779.055 15.432)">
      <g id="Group_27" data-name="Group 27" transform="translate(0 0)">
        <path id="Path_32" data-name="Path 32" d="M12.562,49.119a5.71,5.71,0,0,1-1.484.376,2.413,2.413,0,0,0,1.133-1.318,5.4,5.4,0,0,1-1.633.577A2.681,2.681,0,0,0,8.7,48a2.484,2.484,0,0,0-2.574,2.385,2.279,2.279,0,0,0,.06.544A7.5,7.5,0,0,1,.875,48.435,2.266,2.266,0,0,0,.522,49.64a2.347,2.347,0,0,0,1.144,1.981A2.7,2.7,0,0,1,.5,51.327v.026A2.449,2.449,0,0,0,2.566,53.7a2.766,2.766,0,0,1-.675.078,2.454,2.454,0,0,1-.488-.041A2.583,2.583,0,0,0,3.81,55.395,5.444,5.444,0,0,1,.616,56.411,5.207,5.207,0,0,1,0,56.379a7.679,7.679,0,0,0,3.951,1.07,7.006,7.006,0,0,0,7.33-6.784c0-.105,0-.207-.009-.308A4.945,4.945,0,0,0,12.562,49.119Z" transform="translate(0 -48)" fill="#fff"/>
      </g>
    </g>
  </g>
</svg>
