<svg xmlns="http://www.w3.org/2000/svg" width="27.058" height="17.277" viewBox="0 0 27.058 17.277">
  <g id="Group_2" data-name="Group 2" transform="translate(484.985 22.478)">
    <path id="Path_17" data-name="Path 17" d="M-457.927-13.682a5.721,5.721,0,0,1-.394.65,24.075,24.075,0,0,1-6.777,5.98,12.994,12.994,0,0,1-5.65,1.827,11.265,11.265,0,0,1-4.811-.759,19.471,19.471,0,0,1-6.182-3.974,25.692,25.692,0,0,1-2.955-3.2.946.946,0,0,1,0-1.362,24.074,24.074,0,0,1,6.852-6.092,12.432,12.432,0,0,1,6.859-1.853,12.086,12.086,0,0,1,4.835,1.286,23.274,23.274,0,0,1,7.958,6.7,3.21,3.21,0,0,1,.264.483Zm-25.042-.178c.1.117.165.209.243.289.823.846,1.61,1.731,2.48,2.526a16.262,16.262,0,0,0,5.714,3.522,9.179,9.179,0,0,0,4,.481,11.909,11.909,0,0,0,4.851-1.746,22.457,22.457,0,0,0,5.133-4.368c.2-.221.387-.451.6-.7-.518-.562-1.005-1.119-1.523-1.645a19.114,19.114,0,0,0-5.967-4.292,10.175,10.175,0,0,0-3.592-.885,10.461,10.461,0,0,0-5.368,1.316,19.87,19.87,0,0,0-4.986,3.789C-481.924-15.024-482.433-14.441-482.969-13.86Z" transform="translate(0 0)"/>
    <path id="Path_18" data-name="Path 18" d="M-350.678,32.432a5.354,5.354,0,0,1-5.364,5.352,5.351,5.351,0,0,1-5.329-5.361,5.352,5.352,0,0,1,5.364-5.352A5.352,5.352,0,0,1-350.678,32.432Zm-1.783-.01a3.572,3.572,0,0,0-3.562-3.568,3.577,3.577,0,0,0-3.568,3.566A3.579,3.579,0,0,0-356.013,36,3.572,3.572,0,0,0-352.461,32.422Z" transform="translate(-115.432 -46.269)"/>
  </g>
</svg>
