<svg xmlns="http://www.w3.org/2000/svg" width="28" height="24" viewBox="0 0 28 24">
  <g id="heart-shape-outline" transform="translate(0 -36.545)">
    <path id="Path_68" data-name="Path 68" d="M26.016,38.483a7.515,7.515,0,0,0-5.485-1.938,6.231,6.231,0,0,0-1.977.336,7.988,7.988,0,0,0-1.875.906q-.868.57-1.492,1.07A14.439,14.439,0,0,0,14,39.92a14.458,14.458,0,0,0-1.187-1.062q-.625-.5-1.492-1.07a8,8,0,0,0-1.875-.906,6.232,6.232,0,0,0-1.977-.336,7.515,7.515,0,0,0-5.484,1.938A7.166,7.166,0,0,0,0,43.857a6.845,6.845,0,0,0,.367,2.156A9.458,9.458,0,0,0,1.2,47.9a13.828,13.828,0,0,0,1.062,1.523q.594.742.867,1.023a5.175,5.175,0,0,0,.43.406l9.75,9.406a.98.98,0,0,0,1.375,0l9.734-9.375Q28,47.311,28,43.857A7.164,7.164,0,0,0,26.016,38.483ZM23.062,49.42,14,58.154,4.922,49.4Q2,46.483,2,43.857a6.812,6.812,0,0,1,.336-2.234A4.364,4.364,0,0,1,3.2,40.084a4.128,4.128,0,0,1,1.273-.93,5.646,5.646,0,0,1,1.469-.484,8.949,8.949,0,0,1,1.531-.125,4.494,4.494,0,0,1,1.75.4,7.988,7.988,0,0,1,1.726,1q.789.6,1.352,1.125a12.136,12.136,0,0,1,.937.961,1.024,1.024,0,0,0,1.531,0,12.1,12.1,0,0,1,.938-.961q.562-.523,1.351-1.125a7.986,7.986,0,0,1,1.727-1,4.493,4.493,0,0,1,1.75-.4,8.952,8.952,0,0,1,1.531.125,5.64,5.64,0,0,1,1.469.484,4.127,4.127,0,0,1,1.273.93,4.364,4.364,0,0,1,.859,1.539A6.818,6.818,0,0,1,26,43.857Q26,46.482,23.062,49.42Z" transform="translate(0 0)" fill="#8f6b6c"/>
  </g>
</svg>
